Coordinates
version=1
nRows=65
nColumns=12
inDegrees=yes

Units are S.I. units (second, meters, Newtons, ...)
Angles are in degrees

endheader
time	SC_y	SC_z	SC_x	AC_y	AC_z	AC_x	GH_y	GH_z	GH_yy	EL_x	PS_y
       0.0              -13.75         -1.572          17.78          61.52         -13.35         -5.674         -157.1          56.17          62.93           17.3          103.9
   0.02971              -13.75         -1.566          17.78          61.52         -13.35         -5.672         -157.1          56.16          62.94          17.31          103.9
   0.05943              -13.74          -1.56          17.79          61.51         -13.34         -5.671         -157.0          56.16          62.95          17.32          103.9
   0.08914              -13.74         -1.553          17.79          61.51         -13.34         -5.669         -157.0          56.15          62.96          17.34          103.9
    0.1189              -13.74         -1.546           17.8          61.51         -13.34         -5.668         -156.9          56.15          62.98          17.35          103.9
    0.1486              -13.74         -1.539           17.8          61.51         -13.33         -5.666         -156.9          56.14          62.99          17.37          103.9
    0.1783              -13.74         -1.531          17.81           61.5         -13.33         -5.664         -156.8          56.13          63.01          17.38          103.9
     0.208              -13.74         -1.523          17.81           61.5         -13.33         -5.662         -156.7          56.13          63.03           17.4          103.9
    0.2377              -13.74         -1.514          17.82           61.5         -13.32          -5.66         -156.7          56.12          63.05          17.42          103.9
    0.2674              -13.74         -1.504          17.82          61.49         -13.32         -5.658         -156.6          56.11          63.07          17.43          103.9
    0.2971              -13.74         -1.493          17.83          61.49         -13.31         -5.655         -156.5           56.1          63.09          17.45          104.0
    0.3269              -13.74         -1.482          17.84          61.48         -13.31         -5.653         -156.5          56.09          63.12          17.48          104.0
    0.3566              -13.74          -1.47          17.85          61.48          -13.3          -5.65         -156.4          56.08          63.14           17.5          104.0
    0.3863              -13.74         -1.457          17.86          61.48          -13.3         -5.647         -156.3          56.07          63.17          17.53          104.0
     0.416              -13.74         -1.443          17.87          61.47         -13.29         -5.643         -156.2          56.06           63.2          17.55          104.0
    0.4457              -13.74         -1.428          17.88          61.46         -13.28          -5.64         -156.1          56.04          63.23          17.58          104.1
    0.4754              -13.74         -1.411          17.89          61.46         -13.28         -5.636         -156.0          56.03          63.27          17.62          104.1
    0.5051              -13.74         -1.393           17.9          61.45         -13.27         -5.632         -155.8          56.02           63.3          17.65          104.1
    0.5348              -13.74         -1.373          17.91          61.44         -13.26         -5.627         -155.7           56.0          63.35          17.69          104.1
    0.5646              -13.74         -1.352          17.93          61.44         -13.25         -5.622         -155.5          55.98          63.39          17.73          104.2
    0.5943              -13.74         -1.328          17.94          61.43         -13.24         -5.616         -155.4          55.96          63.44          17.78          104.2
     0.624              -13.74         -1.302          17.96          61.42         -13.23          -5.61         -155.2          55.94           63.5          17.83          104.2
    0.6537              -13.74         -1.273          17.98          61.41         -13.22         -5.603         -155.0          55.91          63.56          17.89          104.3
    0.6834              -13.74         -1.241           18.0          61.39          -13.2         -5.596         -154.7          55.88          63.63          17.95          104.3
    0.7131              -13.74         -1.205          18.03          61.38         -13.19         -5.587         -154.5          55.85           63.7          18.02          104.4
    0.7428              -13.74         -1.165          18.05          61.37         -13.17         -5.578         -154.2          55.82          63.79           18.1          104.4
    0.7726              -13.74         -1.121          18.08          61.35         -13.15         -5.567         -153.9          55.78          63.88          18.19          104.5
    0.8023              -13.73         -1.071          18.12          61.33         -13.13         -5.555         -153.5          55.74          63.99          18.29          104.5
     0.832              -13.73         -1.014          18.16          61.31          -13.1         -5.542         -153.1          55.69          64.11           18.4          104.6
    0.8617              -13.73        -0.9499           18.2          61.28         -13.07         -5.527         -152.7          55.64          64.24          18.53          104.7
    0.8914              -13.73        -0.8766          18.25          61.26         -13.04         -5.509         -152.2          55.57           64.4          18.67          104.8
    0.9211              -13.73        -0.7925          18.31          61.22          -13.0          -5.49         -151.6           55.5          64.58          18.84          104.9
    0.9508              -13.73        -0.6954          18.37          61.19         -12.96         -5.467         -150.9          55.42          64.78          19.03          105.1
    0.9806              -13.72        -0.5825          18.45          61.15         -12.91          -5.44         -150.1          55.32          65.02          19.25          105.2
      1.01              -13.72        -0.4504          18.54           61.1         -12.85         -5.409         -149.1          55.21           65.3          19.51          105.4
      1.04              -13.72        -0.2947          18.64          61.04         -12.78         -5.372         -148.0          55.07          65.64          19.82          105.6
      1.07              -13.71        -0.1097          18.77          60.97          -12.7         -5.328         -146.7          54.92          66.03          20.18          105.9
     1.099              -13.71          0.112          18.92          60.88          -12.6         -5.276         -145.1          54.73           66.5          20.62          106.2
     1.129               -13.7         0.3803           19.1          60.78         -12.48         -5.212         -143.2           54.5          67.07          21.15          106.6
     1.159               -13.7         0.7081          19.32          60.66         -12.33         -5.135         -140.9          54.21          67.76          21.79          107.0
     1.189              -13.69          1.113          19.59          60.51         -12.15         -5.039         -138.0          53.87          68.62          22.59          107.6
     1.218              -13.68          1.617          19.94          60.31         -11.92          -4.92         -134.5          53.44          69.69          23.58          108.3
     1.248              -13.66          2.252          20.36          60.08         -11.64         -4.769         -129.9          52.89          71.04          24.84          109.1
     1.278              -13.64           3.06          20.91          59.77         -11.28         -4.578         -124.2           52.2          72.76          26.43          110.3
     1.307              -13.62          4.094          21.61          59.38         -10.81         -4.333         -116.9          51.31          74.95          28.47          111.7
     1.337              -13.59          5.421          22.51          58.88         -10.22          -4.02         -107.5          50.17          77.77          31.08          113.5
     1.367              -13.55          7.116          23.65          58.24         -9.463         -3.619         -95.43          48.72          81.36          34.42          115.9
     1.397              -13.51          9.247           25.1          57.43          -8.51         -3.114          -80.3           46.9          85.88          38.62          118.8
     1.426              -13.45          11.84          26.85          56.45         -7.348           -2.5         -61.86          44.67           91.4          43.74          122.4
     1.456              -13.38          14.85          28.89          55.32         -6.002         -1.788          -40.5          42.09          97.78          49.67          126.5
     1.486              -13.31          18.11          31.09          54.09         -4.544         -1.017         -17.36           39.3          104.7          56.09          131.1
     1.515              -13.24          21.37           33.3          52.86         -3.086        -0.2458          5.778           36.5          111.6          62.51          135.6
     1.545              -13.17          24.38          35.33          51.72         -1.739         0.4663          27.15          33.92          118.0          68.44          139.7
     1.575              -13.12          26.98          37.09          50.74        -0.5774          1.081          45.58           31.7          123.5          73.56          143.3
     1.605              -13.07          29.11          38.53          49.94         0.3758          1.585          60.71          29.87          128.0          77.76          146.2
     1.634              -13.03          30.81          39.68           49.3          1.134          1.986          72.74          28.42          131.6           81.1          148.6
     1.664               -13.0          32.13          40.57           48.8          1.727            2.3          82.16          27.28          134.5          83.72          150.4
     1.694              -12.98          33.17          41.27          48.41           2.19          2.544           89.5          26.39          136.6          85.75          151.9
     1.723              -12.96          33.97          41.82           48.1          2.551          2.735          95.23           25.7          138.4          87.34          153.0
     1.753              -12.95          34.61          42.25          47.86          2.836          2.886          99.74          25.16          139.7           88.6          153.8
     1.783              -12.94          35.11          42.59          47.67          3.061          3.005          103.3          24.72          140.8          89.59          154.5
     1.813              -12.93          35.52          42.86          47.52          3.242          3.101          106.2          24.38          141.6          90.39          155.1
     1.842              -12.92          35.85          43.08          47.39          3.389          3.178          108.5           24.1          142.3          91.03          155.6
     1.872              -12.92          36.12          43.27          47.29          3.509          3.242          110.4          23.87          142.9          91.56          155.9
     1.902              -12.91          36.34          43.42          47.21          3.608          3.294          112.0          23.68          143.4           92.0          156.2
